<svg width="555" height="408" viewBox="0 0 555 408" fill="none" xmlns="http://www.w3.org/2000/svg">
<path d="M148.5 373.926C148.5 360.119 159.693 348.926 173.5 348.926H326.5C340.307 348.926 351.5 360.119 351.5 373.926V382.566C351.5 396.373 340.307 407.566 326.5 407.566H173.5C159.693 407.566 148.5 396.373 148.5 382.566V373.926Z" fill="#949494"/>
<path d="M108.966 126.347C90.2153 104.605 116.913 73.5689 141.213 88.86L542.815 341.573C550.087 346.15 554.5 354.14 554.5 362.733V382.566C554.5 396.373 543.307 407.566 529.5 407.566H362.952C355.681 407.566 348.77 404.4 344.021 398.893L108.966 126.347Z" fill="#5F5F5F"/>
</svg>
